<mxfile host="app.diagrams.net" modified="2023-10-11T06:19:46.924Z" agent="Mozilla/5.0 (X11; Linux x86_64) AppleWebKit/537.36 (KHTML, like Gecko) Chrome/114.0.0.0 Safari/537.36" etag="KV3M9WQ-R9PZjKz_vbcp" version="22.0.4" type="device">
  <diagram name="Página-1" id="Mn7q5U3GUjuzY-O9sQf3">
    <mxGraphModel dx="714" dy="712" grid="1" gridSize="10" guides="1" tooltips="1" connect="1" arrows="1" fold="1" page="1" pageScale="1" pageWidth="1169" pageHeight="827" math="0" shadow="0">
      <root>
        <mxCell id="0" />
        <mxCell id="1" parent="0" />
        <mxCell id="R-TXebyMsJ3kuXPIVr5e-2" value="INICIO" style="rounded=1;whiteSpace=wrap;html=1;" vertex="1" parent="1">
          <mxGeometry x="525" y="20" width="120" height="60" as="geometry" />
        </mxCell>
        <mxCell id="R-TXebyMsJ3kuXPIVr5e-26" value="" style="edgeStyle=orthogonalEdgeStyle;rounded=0;orthogonalLoop=1;jettySize=auto;html=1;" edge="1" parent="1" source="R-TXebyMsJ3kuXPIVr5e-3" target="R-TXebyMsJ3kuXPIVr5e-4">
          <mxGeometry relative="1" as="geometry" />
        </mxCell>
        <mxCell id="R-TXebyMsJ3kuXPIVr5e-3" value="ESCRIBE&lt;br&gt;&quot;Introduce un año para saber si es bisiesto&quot;" style="shape=parallelogram;perimeter=parallelogramPerimeter;whiteSpace=wrap;html=1;fixedSize=1;" vertex="1" parent="1">
          <mxGeometry x="525" y="160" width="120" height="60" as="geometry" />
        </mxCell>
        <mxCell id="R-TXebyMsJ3kuXPIVr5e-27" value="" style="edgeStyle=orthogonalEdgeStyle;rounded=0;orthogonalLoop=1;jettySize=auto;html=1;" edge="1" parent="1" source="R-TXebyMsJ3kuXPIVr5e-4" target="R-TXebyMsJ3kuXPIVr5e-5">
          <mxGeometry relative="1" as="geometry" />
        </mxCell>
        <mxCell id="R-TXebyMsJ3kuXPIVr5e-4" value="LEER&lt;br&gt;anyo" style="shape=parallelogram;perimeter=parallelogramPerimeter;whiteSpace=wrap;html=1;fixedSize=1;" vertex="1" parent="1">
          <mxGeometry x="525" y="300" width="120" height="60" as="geometry" />
        </mxCell>
        <mxCell id="R-TXebyMsJ3kuXPIVr5e-10" style="edgeStyle=orthogonalEdgeStyle;rounded=0;orthogonalLoop=1;jettySize=auto;html=1;exitX=0;exitY=0.5;exitDx=0;exitDy=0;entryX=0.5;entryY=0;entryDx=0;entryDy=0;" edge="1" parent="1" source="R-TXebyMsJ3kuXPIVr5e-5" target="R-TXebyMsJ3kuXPIVr5e-9">
          <mxGeometry relative="1" as="geometry" />
        </mxCell>
        <mxCell id="R-TXebyMsJ3kuXPIVr5e-11" style="edgeStyle=orthogonalEdgeStyle;rounded=0;orthogonalLoop=1;jettySize=auto;html=1;exitX=1;exitY=0.5;exitDx=0;exitDy=0;entryX=0.5;entryY=0;entryDx=0;entryDy=0;" edge="1" parent="1" source="R-TXebyMsJ3kuXPIVr5e-5" target="R-TXebyMsJ3kuXPIVr5e-8">
          <mxGeometry relative="1" as="geometry" />
        </mxCell>
        <mxCell id="R-TXebyMsJ3kuXPIVr5e-5" value="anyo%4==0 &amp;amp;&amp;amp; anyo%100!=0" style="rhombus;whiteSpace=wrap;html=1;" vertex="1" parent="1">
          <mxGeometry x="530" y="420" width="110" height="120" as="geometry" />
        </mxCell>
        <mxCell id="R-TXebyMsJ3kuXPIVr5e-23" style="edgeStyle=orthogonalEdgeStyle;rounded=0;orthogonalLoop=1;jettySize=auto;html=1;exitX=0.5;exitY=1;exitDx=0;exitDy=0;" edge="1" parent="1" source="R-TXebyMsJ3kuXPIVr5e-8" target="R-TXebyMsJ3kuXPIVr5e-21">
          <mxGeometry relative="1" as="geometry" />
        </mxCell>
        <mxCell id="R-TXebyMsJ3kuXPIVr5e-8" value="ESCRIBE&lt;br&gt;&quot;Es bisiesto&quot;" style="shape=parallelogram;perimeter=parallelogramPerimeter;whiteSpace=wrap;html=1;fixedSize=1;" vertex="1" parent="1">
          <mxGeometry x="750" y="540" width="120" height="60" as="geometry" />
        </mxCell>
        <mxCell id="R-TXebyMsJ3kuXPIVr5e-14" style="edgeStyle=orthogonalEdgeStyle;rounded=0;orthogonalLoop=1;jettySize=auto;html=1;exitX=1;exitY=0.5;exitDx=0;exitDy=0;" edge="1" parent="1" source="R-TXebyMsJ3kuXPIVr5e-9" target="R-TXebyMsJ3kuXPIVr5e-13">
          <mxGeometry relative="1" as="geometry" />
        </mxCell>
        <mxCell id="R-TXebyMsJ3kuXPIVr5e-15" style="edgeStyle=orthogonalEdgeStyle;rounded=0;orthogonalLoop=1;jettySize=auto;html=1;exitX=0;exitY=0.5;exitDx=0;exitDy=0;" edge="1" parent="1" source="R-TXebyMsJ3kuXPIVr5e-9" target="R-TXebyMsJ3kuXPIVr5e-12">
          <mxGeometry relative="1" as="geometry" />
        </mxCell>
        <mxCell id="R-TXebyMsJ3kuXPIVr5e-9" value="&lt;div style=&quot;background-color:#1e1f22;color:#bcbec4&quot;&gt;&lt;pre style=&quot;font-family:&#39;JetBrains Mono&#39;,monospace;font-size:9,8pt;&quot;&gt;anyo%100==&lt;span style=&quot;color:#2aacb8;&quot;&gt;0&lt;/span&gt;&lt;/pre&gt;&lt;pre style=&quot;font-family:&#39;JetBrains Mono&#39;,monospace;font-size:9,8pt;&quot;&gt;&lt;span style=&quot;color:#2aacb8;&quot;&gt; &lt;/span&gt;&amp;amp;&amp;amp; anyo%&lt;span style=&quot;color:#2aacb8;&quot;&gt;400&lt;/span&gt;==&lt;span style=&quot;color:#2aacb8;&quot;&gt;0&lt;/span&gt;&lt;/pre&gt;&lt;/div&gt;" style="rhombus;whiteSpace=wrap;html=1;" vertex="1" parent="1">
          <mxGeometry x="320" y="540" width="130" height="130" as="geometry" />
        </mxCell>
        <mxCell id="R-TXebyMsJ3kuXPIVr5e-19" style="edgeStyle=orthogonalEdgeStyle;rounded=0;orthogonalLoop=1;jettySize=auto;html=1;exitX=0.5;exitY=1;exitDx=0;exitDy=0;entryX=0;entryY=0.5;entryDx=0;entryDy=0;" edge="1" parent="1" source="R-TXebyMsJ3kuXPIVr5e-12" target="R-TXebyMsJ3kuXPIVr5e-18">
          <mxGeometry relative="1" as="geometry" />
        </mxCell>
        <mxCell id="R-TXebyMsJ3kuXPIVr5e-12" value="ESCRIBE&lt;br&gt;&quot;Es bisiesto&quot;" style="shape=parallelogram;perimeter=parallelogramPerimeter;whiteSpace=wrap;html=1;fixedSize=1;" vertex="1" parent="1">
          <mxGeometry x="190" y="800" width="120" height="60" as="geometry" />
        </mxCell>
        <mxCell id="R-TXebyMsJ3kuXPIVr5e-20" style="edgeStyle=orthogonalEdgeStyle;rounded=0;orthogonalLoop=1;jettySize=auto;html=1;exitX=0.25;exitY=1;exitDx=0;exitDy=0;entryX=0.5;entryY=0;entryDx=0;entryDy=0;" edge="1" parent="1" source="R-TXebyMsJ3kuXPIVr5e-13" target="R-TXebyMsJ3kuXPIVr5e-18">
          <mxGeometry relative="1" as="geometry" />
        </mxCell>
        <mxCell id="R-TXebyMsJ3kuXPIVr5e-13" value="ESCRIBE&lt;br&gt;&quot;No es bisiesto&quot;" style="shape=parallelogram;perimeter=parallelogramPerimeter;whiteSpace=wrap;html=1;fixedSize=1;" vertex="1" parent="1">
          <mxGeometry x="530" y="800" width="120" height="60" as="geometry" />
        </mxCell>
        <mxCell id="R-TXebyMsJ3kuXPIVr5e-22" style="edgeStyle=orthogonalEdgeStyle;rounded=0;orthogonalLoop=1;jettySize=auto;html=1;exitX=1;exitY=0.5;exitDx=0;exitDy=0;" edge="1" parent="1" source="R-TXebyMsJ3kuXPIVr5e-18" target="R-TXebyMsJ3kuXPIVr5e-21">
          <mxGeometry relative="1" as="geometry" />
        </mxCell>
        <mxCell id="R-TXebyMsJ3kuXPIVr5e-18" value="" style="ellipse;whiteSpace=wrap;html=1;aspect=fixed;" vertex="1" parent="1">
          <mxGeometry x="370" y="940" width="80" height="80" as="geometry" />
        </mxCell>
        <mxCell id="R-TXebyMsJ3kuXPIVr5e-25" style="edgeStyle=orthogonalEdgeStyle;rounded=0;orthogonalLoop=1;jettySize=auto;html=1;exitX=0.5;exitY=1;exitDx=0;exitDy=0;entryX=0.5;entryY=0;entryDx=0;entryDy=0;" edge="1" parent="1" source="R-TXebyMsJ3kuXPIVr5e-21" target="R-TXebyMsJ3kuXPIVr5e-24">
          <mxGeometry relative="1" as="geometry" />
        </mxCell>
        <mxCell id="R-TXebyMsJ3kuXPIVr5e-21" value="" style="ellipse;whiteSpace=wrap;html=1;aspect=fixed;" vertex="1" parent="1">
          <mxGeometry x="670" y="1000" width="80" height="80" as="geometry" />
        </mxCell>
        <mxCell id="R-TXebyMsJ3kuXPIVr5e-24" value="FIN" style="rounded=1;whiteSpace=wrap;html=1;" vertex="1" parent="1">
          <mxGeometry x="650" y="1200" width="120" height="60" as="geometry" />
        </mxCell>
        <mxCell id="R-TXebyMsJ3kuXPIVr5e-28" value="NO" style="text;html=1;align=center;verticalAlign=middle;resizable=0;points=[];autosize=1;strokeColor=none;fillColor=none;" vertex="1" parent="1">
          <mxGeometry x="390" y="448" width="40" height="30" as="geometry" />
        </mxCell>
        <mxCell id="R-TXebyMsJ3kuXPIVr5e-29" value="SI" style="text;html=1;align=center;verticalAlign=middle;resizable=0;points=[];autosize=1;strokeColor=none;fillColor=none;" vertex="1" parent="1">
          <mxGeometry x="755" y="448" width="30" height="30" as="geometry" />
        </mxCell>
        <mxCell id="R-TXebyMsJ3kuXPIVr5e-30" value="NO" style="text;html=1;align=center;verticalAlign=middle;resizable=0;points=[];autosize=1;strokeColor=none;fillColor=none;" vertex="1" parent="1">
          <mxGeometry x="480" y="578" width="40" height="30" as="geometry" />
        </mxCell>
        <mxCell id="R-TXebyMsJ3kuXPIVr5e-31" value="SI" style="text;html=1;align=center;verticalAlign=middle;resizable=0;points=[];autosize=1;strokeColor=none;fillColor=none;" vertex="1" parent="1">
          <mxGeometry x="275" y="578" width="30" height="30" as="geometry" />
        </mxCell>
      </root>
    </mxGraphModel>
  </diagram>
</mxfile>
